<svg width="250" height="78" viewBox="0 0 250 78" fill="none" xmlns="http://www.w3.org/2000/svg">
<g clip-path="url(#clip0_719_11)">
<mask id="mask0_719_11" style="mask-type:luminance" maskUnits="userSpaceOnUse" x="0" y="0" width="78" height="78">
<path d="M77.1208 0H0V77.1208H77.1208V0Z" fill="white"/>
</mask>
<g mask="url(#mask0_719_11)">
<path fill-rule="evenodd" clip-rule="evenodd" d="M1.95683 15.8693C0 20.5935 0 26.5825 0 38.5604C0 50.5384 0 56.5273 1.95683 61.2515C4.56593 67.5501 9.57037 72.5546 15.8693 75.1639C20.5935 77.1208 26.5825 77.1208 38.5604 77.1208C50.5384 77.1208 56.5273 77.1208 61.2515 75.1639C67.5501 72.5546 72.5546 67.5501 75.1639 61.2515C77.1208 56.5273 77.1208 50.5384 77.1208 38.5604C77.1208 26.5825 77.1208 20.5935 75.1639 15.8693C72.5546 9.57037 67.5501 4.56593 61.2515 1.95683C56.5273 0 50.5384 0 38.5604 0C26.5825 0 20.5935 0 15.8693 1.95683C9.57037 4.56593 4.56593 9.57037 1.95683 15.8693ZM19.2803 38.5604L38.5605 9.6401V51.5745L19.2803 38.5604ZM38.5605 51.5745L57.8407 38.5604L38.5605 67.4807V51.5745Z" fill="white"/>
</g>
<path d="M110.848 65.5526V21.4395H92.6478V11.5681H140.154V21.4395H122.031V65.5526H110.848ZM139.309 65.5526L161.519 11.5681H174.398L196.378 65.5526H184.27L178.794 51.3624H156.506L150.954 65.5526H139.309ZM159.977 42.4164H175.401L167.689 22.5192L159.977 42.4164ZM225.615 66.3238C221.605 66.3238 217.852 65.6297 214.355 64.2416C210.859 62.802 207.8 60.8226 205.178 58.3033C202.607 55.784 200.576 52.8534 199.085 49.5115C197.646 46.1182 196.926 42.4678 196.926 38.5603C196.926 34.6015 197.646 30.9511 199.085 27.6092C200.576 24.2159 202.633 21.2596 205.255 18.7403C207.877 16.221 210.911 14.2673 214.355 12.8791C217.852 11.4395 221.605 10.7197 225.615 10.7197C228.597 10.7197 231.476 11.131 234.253 11.9537C237.029 12.7763 239.6 13.9331 241.965 15.4241C244.381 16.9151 246.438 18.7146 248.134 20.8226L240.576 28.3033C238.623 25.8868 236.361 24.0616 233.79 22.8277C231.271 21.5938 228.546 20.9768 225.615 20.9768C223.199 20.9768 220.936 21.4395 218.828 22.365C216.72 23.239 214.895 24.4729 213.353 26.0668C211.81 27.6092 210.602 29.4601 209.728 31.6195C208.854 33.7274 208.417 36.0411 208.417 38.5603C208.417 41.0282 208.854 43.3418 209.728 45.5012C210.602 47.6092 211.836 49.4601 213.43 51.0539C215.024 52.5963 216.875 53.8046 218.983 54.6786C221.142 55.5526 223.481 55.9896 226.001 55.9896C228.828 55.9896 231.476 55.3984 233.944 54.2159C236.412 53.0333 238.597 51.3367 240.499 49.1259L247.826 56.3753C246.129 58.4318 244.098 60.2056 241.733 61.6966C239.368 63.1876 236.798 64.3444 234.021 65.167C231.296 65.9382 228.494 66.3238 225.615 66.3238Z" fill="white"/>
</g>
<defs>
<clipPath id="clip0_719_11">
<rect width="250" height="77.1208" fill="white"/>
</clipPath>
</defs>
</svg>
