<svg width="389" height="120" viewBox="0 0 389 120" fill="none" xmlns="http://www.w3.org/2000/svg">
<mask id="mask0_1_2" style="mask-type:luminance" maskUnits="userSpaceOnUse" x="0" y="0" width="120" height="120">
<path d="M120 0H0V120H120V0Z" fill="white"/>
</mask>
<g mask="url(#mask0_1_2)">
<path fill-rule="evenodd" clip-rule="evenodd" d="M3.04482 24.6927C0 32.0435 0 41.3623 0 60C0 78.6377 0 87.9565 3.04482 95.3073C7.10458 105.108 14.8915 112.895 24.6927 116.955C32.0435 120 41.3623 120 60 120C78.6377 120 87.9565 120 95.3073 116.955C105.108 112.895 112.895 105.108 116.955 95.3073C120 87.9565 120 78.6377 120 60C120 41.3623 120 32.0435 116.955 24.6927C112.895 14.8915 105.108 7.10458 95.3073 3.04482C87.9565 0 78.6377 0 60 0C41.3623 0 32.0435 0 24.6927 3.04482C14.8915 7.10458 7.10458 14.8915 3.04482 24.6927ZM30.0001 60L60.0001 15V80.25L30.0001 60ZM60.0001 80.25L90.0001 60L60.0001 105V80.25Z" fill="black"/>
</g>
<path d="M172.48 102V33.3599H144.16V17.9999H218.08V33.3599H189.88V102H172.48ZM216.764 102L251.324 17.9999H271.364L305.564 102H286.724L278.204 79.9199H243.524L234.884 102H216.764ZM248.924 65.9999H272.924L260.924 35.0399L248.924 65.9999ZM351.057 103.2C344.817 103.2 338.977 102.12 333.537 99.9599C328.097 97.7199 323.337 94.6399 319.257 90.7199C315.257 86.7999 312.097 82.2399 309.777 77.0399C307.537 71.7599 306.417 66.0799 306.417 59.9999C306.417 53.8399 307.537 48.1599 309.777 42.9599C312.097 37.6799 315.297 33.0799 319.377 29.1599C323.457 25.2399 328.177 22.1999 333.537 20.0399C338.977 17.7999 344.817 16.6799 351.057 16.6799C355.697 16.6799 360.177 17.3199 364.497 18.5999C368.817 19.8799 372.817 21.6799 376.497 23.9999C380.257 26.3199 383.457 29.1199 386.097 32.3999L374.337 44.0399C371.297 40.2799 367.777 37.4399 363.777 35.5199C359.857 33.5999 355.617 32.6399 351.057 32.6399C347.297 32.6399 343.777 33.3599 340.497 34.7999C337.217 36.1599 334.377 38.0799 331.977 40.5599C329.577 42.9599 327.697 45.8399 326.337 49.1999C324.977 52.4799 324.297 56.0799 324.297 59.9999C324.297 63.8399 324.977 67.4399 326.337 70.7999C327.697 74.0799 329.617 76.9599 332.097 79.4399C334.577 81.8399 337.457 83.7199 340.737 85.0799C344.097 86.4399 347.737 87.1199 351.657 87.1199C356.057 87.1199 360.177 86.1999 364.017 84.3599C367.857 82.5199 371.257 79.8799 374.217 76.4399L385.617 87.7199C382.977 90.9199 379.817 93.6799 376.137 95.9999C372.457 98.3199 368.457 100.12 364.137 101.4C359.897 102.6 355.537 103.2 351.057 103.2Z" fill="black"/>
</svg>
